<svg xmlns="http://www.w3.org/2000/svg" viewBox="0 0 410.21 260.21"><defs><style>.cls-1{fill:#ffd136;}.cls-2{fill:#0b4da0;}</style></defs><title>logo</title><g id="Calque_2" data-name="Calque 2"><g id="Calque_1-2" data-name="Calque 1"><path class="cls-1" d="M60.08,129.23H60a3.48,3.48,0,0,0-3.4,2.84c-2.29,12.41-5,27.62-8.82,46.57a3.5,3.5,0,0,1-3.09,2.8c-7.53.69-17,1.4-23.26,1.75a3.47,3.47,0,0,1-3.61-4c6-37.3,16.51-103.35,19.54-121.63a3.47,3.47,0,0,0-3.89-4c-12.15,1.59-20,2.57-29.17,3.65A3.48,3.48,0,0,1,.43,54C-.1,45.69,0,36.81.11,31.34a3.47,3.47,0,0,1,3-3.32c29.67-4.64,81.29-10,103.88-4.39C122,27.38,140.33,40.68,139.21,62.5,137.35,99,104.12,116.81,93.9,121.63a3.48,3.48,0,0,0-1.84,4.23c14.6,43.41,48.84,68.28,81.41,76.46,41.94,10.53,76-8.95,84.63-15a3.43,3.43,0,0,1,2.83-.51c11.16,2.77,21.22,5.45,30.5,8.05a3.47,3.47,0,0,1,1.31,6c-15.86,13.4-67.53,50.24-120.49,37.61C91.43,219.15,68.85,147.9,63.4,131.59A3.47,3.47,0,0,0,60.08,129.23Zm.81-29.49a1.84,1.84,0,0,0,2.38,2C71.44,99.13,95,90.16,101.55,76c4.75-10.58.55-19.79-8.5-22.8-9.32-3.09-19.58-2.92-23.6-2.69a1.86,1.86,0,0,0-1.71,1.61C65.59,67.64,63.78,78.52,60.89,99.74Z"/><path class="cls-1" d="M311.5,145.62c.39,8.22,4.22,8.75,10.15,6A4.77,4.77,0,0,1,328,154c1.52,3.38,3.16,7.33,5,11.06a4.93,4.93,0,0,1-1,5.74c-6.85,6.51-15.47,9-24.77,9.66-12.75.86-25.14-7.58-24.83-24.86.19-10.59,1.31-73.37,1.66-122.44a4.86,4.86,0,0,1,4.56-4.71c4.71-.33,10.53-.79,15.41-1.12A4.89,4.89,0,0,1,309.22,32c.42,9.55.74,21.7,1.29,34.64.23,5.48,4.3,4.75,10.46,4a4.91,4.91,0,0,1,5.48,4.53c.32,4.66.63,10.92.77,15.43a4.89,4.89,0,0,1-4.68,5c-8.06.35-11.62-.17-12.17,7.38C309.78,111.14,310.45,123.41,311.5,145.62Z"/><path class="cls-1" d="M166.87,180c-26.66-.77-40-32-34.67-63.3,2.07-12,9.79-48.29,36.22-45.37,20,2.21,30,34,30.35,52.54C199.19,143.39,190.79,180.66,166.87,180ZM174,125.73c.35-10.4-1.08-22.89-7.33-23.57-5.91-.65-10.1,12.77-10.32,23.1-.16,7.65,2,23.42,8.94,23.61C171.65,149,173.81,132.58,174,125.73Z"/><path class="cls-1" d="M362.4,142.63a2.55,2.55,0,0,0-.75,3.28c2.79,4.83,9.45,7.53,15.13,4.25,4.15-2.4,9.91-9.69,12.74-15.11A2.59,2.59,0,0,1,393,134a102.81,102.81,0,0,1,16.27,10.07,2.56,2.56,0,0,1,.8,2.86c-4.08,11.37-19.51,37.72-43.47,33.24-29.69-5.57-33.4-36.45-33.84-42.47-2.58-35.18,16.17-53.76,22.95-57.91,10.51-6.42,24.16-6,33.88,3.92,11.39,11.64,6.68,23.22,4.8,27C388.7,122,374.38,133.72,362.4,142.63Zm-2.76-20.49c5.91-4.26,13.44-10.93,17.4-16.53a5.35,5.35,0,0,0-.82-7,10.06,10.06,0,0,0-14,.21,29.25,29.25,0,0,0-8.38,20.59A3.63,3.63,0,0,0,359.64,122.14Z"/><path class="cls-1" d="M240.11,148.29c8.82-.34,7.22-52,6.14-70.11a4.18,4.18,0,0,1,3.91-4.4c5.87-.39,10.18-.52,15.21-.73a4.17,4.17,0,0,1,4.3,3.39c3.28,18.29,4.54,40,3.13,63.29-.76,12.4-8,39.55-31,40-21.94.42-32.18-20-33.88-33.38-3.06-24.09-1.84-56.57-1.21-69.54a4.15,4.15,0,0,1,3.94-4c4.22-.21,9.48-.28,13.66-.41a4.16,4.16,0,0,1,4.29,4.11C228.82,93.7,230.11,148.68,240.11,148.29Z"/><path class="cls-2" d="M209.52,48.88c-4.26,0-9.46-.46-16.58-.46h-7c-8.85,0-16.71.46-18.25.46-.4,0-.53-.2-.53-1.4s.13-1.39.53-1.46l2.93-.47c.67-.13.8-.26.8-.93V4.26c0-.66-.13-.8-.8-.93l-2.93-.47c-.4-.06-.53-.26-.53-1.46s.13-1.4.53-1.4c1.54,0,6.86.47,12.39.47S192.2,0,193.74,0c.39,0,.53.2.53,1.4s-.14,1.4-.53,1.46l-4.27.47c-.66.07-.8.27-.8.93V41.89a3.58,3.58,0,0,0,1.14,2.66,3.85,3.85,0,0,0,2.73,1.07,42.73,42.73,0,0,0,8.52-1.07,2.93,2.93,0,0,0,2.53-1.86c2.2-4,4.46-8.46,6.73-12.79.26-.46.4-.53.8-.53,1.06,0,3.06.53,3,1.2-.66,5.19-1.86,12-2.86,16.85C211,48.75,210.85,48.88,209.52,48.88Z"/><path class="cls-2" d="M234.62,41c-2.13,5.32-6.19,8.45-11.05,8.45-5.13,0-8.66-4.13-8.66-9.32,0-4.06,1.26-6.39,4.73-8.26,3.13-1.66,8.12-3.13,14.45-4.53V25.24c0-4.79-1.46-7.72-4-7.72-.66,0-.93.2-1.06,1.06l-.47,3.2c-.66,4.79-3.46,7.06-7.19,7.06a3.65,3.65,0,0,1-3.93-3.73c0-4.26,8.26-10.79,18.45-10.79,9.06,0,13.32,3.6,13.32,10.05V36.63c0,5.33,1.06,5.46,2.86,4.26.2-.13.27-.2.4-.2.6,0,1.6,1.47,1.6,1.87s-.27.6-.67,1l-.26.26c-4,4-6.86,5.66-10.13,5.66C239.09,49.48,236.29,46.82,234.62,41Zm-.53-1V35.3a4.53,4.53,0,0,0-1.4-3.33,4.05,4.05,0,0,0-2.6-1.27c-1.33,0-1.93.8-1.93,2.8,0,3.73,2.53,7,4.73,7A1.55,1.55,0,0,0,234.09,40Z"/><path class="cls-2" d="M108.42,259.66c-1.41,0-5.39-.43-9.86-.43-3.25,0-12.32.43-13.73.43-.37,0-.49-.19-.49-1.29s.12-1.29.49-1.35l3.61-.49c.62-.06.74-.24.43-.86L85.68,249H72.26c-2,5.89-1.53,6.25.06,6.87L75.51,257c.37.12.49.31.49,1.41s-.12,1.23-.49,1.23c-1.41,0-5.33-.43-8.58-.43s-6.31.43-7.72.43c-.37,0-.49-.13-.49-1.23s.12-1.22.49-1.41l2-.92c1.84-.86,2.08-1.22,6.19-9.5l6.25-12.5c3.19-6.38,7-14.65,8.77-18.82.3-.73.61-.92,2.2-.92s1.9.19,2.21.92c1.72,4.17,5.33,12.44,8.4,18.82l10.35,21.57c.31.62.31.68.92.86l1.9.49c.37.12.49.25.49,1.35S108.79,259.66,108.42,259.66ZM84.21,245.93,78,233,73.3,245.93Z"/><path class="cls-2" d="M151,259.66c-1.41,0-5.4-.43-9.87-.43s-8.09.43-9.5.43c-.37,0-.49-.19-.49-1.29s.12-1.23.49-1.35l1.65-.43c.62-.18.74-.24.74-.86V243.66c0-5.7-1.35-7.72-5.46-7.72a4.48,4.48,0,0,0-1.34.18v19.61c0,.62.12.68.73.86l1.66.43c.36.12.49.25.49,1.35s-.13,1.29-.49,1.29c-1.41,0-5-.43-9.44-.43s-8.52.43-9.93.43c-.37,0-.49-.19-.49-1.29s.12-1.29.49-1.35l2.08-.43c.61-.12.74-.24.74-.86V239.61c0-.61-.13-.67-.74-.79l-2.08-.37c-.37-.06-.49-.18-.49-1.16s.12-1,.49-1.17a69.26,69.26,0,0,0,14.71-8.46.8.8,0,0,1,.49-.18c.43,0,1.59.49,1.59.92,0,1-.24,3.19-.24,6.68a12.23,12.23,0,0,1,11-7.23c6.43,0,10.42,3.86,10.42,10.48v17.4c0,.62.12.74.73.86L151,257c.36.06.49.25.49,1.35S151.32,259.66,151,259.66Z"/><path class="cls-2" d="M164.8,260.21c-6.43,0-9.8-4.11-9.8-10.73V232.69c0-.61-.06-.67-.74-.8l-2.21-.3c-.42-.07-.48-.19-.48-1.23s.12-1.29.48-1.35c6.44-1.53,9.93-3.68,13.92-7.84.37-.37.43-.49,1.41-.49s1.16.06,1.22.49a67.49,67.49,0,0,1,.49,7.17c1.78,0,4.91-.06,6.93-.06.61,0,.86.3.86,2s-.25,1.84-.86,1.84c-2.14,0-4.78,0-6.86-.06v12.13c0,5.7,1.53,7.11,4.16,7.11a7,7,0,0,0,1.54-.37c.67,0,1.71,1,1.47,1.6A12.61,12.61,0,0,1,164.8,260.21Z"/><path class="cls-2" d="M177.61,258.37c0-1.1.13-1.29.49-1.35l2.09-.43c.61-.12.73-.24.73-.86V239.61c0-.61-.12-.67-.73-.79l-2.09-.37c-.36-.06-.49-.18-.49-1.16s.13-1,.49-1.17a79.68,79.68,0,0,0,15.39-8.46.8.8,0,0,1,.49-.18c.43,0,1.59.49,1.59.92,0,1-.49,5.21-.49,12.75v14.58c0,.62.12.74.74.86l2.08.43c.37.06.49.25.49,1.35s-.12,1.29-.49,1.29c-1.41,0-5.39-.43-9.87-.43s-8.58.43-9.93.43C177.74,259.66,177.61,259.47,177.61,258.37Zm4.17-40.7a7,7,0,1,1,7.05,7.05A6.86,6.86,0,0,1,181.78,217.67Z"/><path class="cls-2" d="M200.23,258.37c0-1.1.12-1.29.49-1.35l2.08-.43c.61-.12.74-.24.74-.86V224.17c0-.61-.13-.67-.74-.8l-2.08-.36c-.37-.07-.49-.19-.49-1.17s.12-1,.49-1.16a80.15,80.15,0,0,0,15.38-8.46.87.87,0,0,1,.49-.19c.43,0,1.6.49,1.6.92,0,1.05-.49,5.21-.49,12.75v30c0,.62.12.74.73.86l2.08.43c.37.06.5.25.5,1.35s-.13,1.29-.5,1.29c-1.41,0-5.39-.43-9.86-.43s-8.52.43-9.93.43C200.35,259.66,200.23,259.47,200.23,258.37Z"/><path class="cls-2" d="M222.72,258.37c0-1.1.12-1.29.49-1.35l2.08-.43c.62-.12.74-.24.74-.86V224.17c0-.61-.12-.67-.74-.8l-2.08-.36c-.37-.07-.49-.19-.49-1.17s.12-1,.49-1.16a79.85,79.85,0,0,0,15.38-8.46.87.87,0,0,1,.49-.19c.43,0,1.6.49,1.6.92,0,1.05-.49,5.21-.49,12.75v30c0,.62.12.74.73.86L243,257c.36.06.49.25.49,1.35s-.13,1.29-.49,1.29c-1.41,0-5.4-.43-9.87-.43s-8.52.43-9.93.43C222.84,259.66,222.72,259.47,222.72,258.37Z"/><path class="cls-2" d="M263,252.42c-2,4.91-5.7,7.79-10.18,7.79-4.72,0-8-3.8-8-8.58,0-3.74,1.17-5.89,4.35-7.6,2.89-1.53,7.48-2.88,13.3-4.17v-2c0-4.41-1.34-7.11-3.67-7.11-.62,0-.86.18-1,1l-.43,2.94c-.62,4.41-3.19,6.5-6.62,6.5a3.36,3.36,0,0,1-3.62-3.43c0-3.93,7.6-9.93,17-9.93,8.33,0,12.26,3.31,12.26,9.25v11.28c0,4.9,1,5,2.63,3.92.19-.12.25-.18.37-.18.55,0,1.47,1.35,1.47,1.71s-.24.56-.61.92L280,255c-3.67,3.68-6.31,5.21-9.31,5.21C267.09,260.21,264.52,257.76,263,252.42Zm-.5-.91v-4.36a4.19,4.19,0,0,0-1.28-3.06,3.76,3.76,0,0,0-2.39-1.17c-1.23,0-1.78.74-1.78,2.58,0,3.43,2.33,6.43,4.35,6.43A1.44,1.44,0,0,0,262.49,251.51Z"/><path class="cls-2" d="M281.25,258.37c0-1.1.12-1.29.49-1.35l2.08-.43c.61-.12.74-.24.74-.86V239.61c0-.61-.13-.67-.74-.79l-2.08-.37c-.37-.06-.49-.18-.49-1.16s.12-1,.49-1.17a79.61,79.61,0,0,0,15.38-8.46.82.82,0,0,1,.49-.18c.43,0,1.6.49,1.6.92,0,1-.49,5.21-.49,12.75v14.58c0,.62.12.74.73.86l2.08.43c.37.06.49.25.49,1.35s-.12,1.29-.49,1.29c-1.4,0-5.39-.43-9.86-.43s-8.58.43-9.93.43C281.37,259.66,281.25,259.47,281.25,258.37Zm4.17-40.7a7,7,0,1,1,7,7.05A6.86,6.86,0,0,1,285.42,217.67Z"/><path class="cls-2" d="M306.19,247.89c1.17,0,1.35.12,1.53.61a56.05,56.05,0,0,0,3.25,7.17A4.36,4.36,0,0,0,315.2,258c2.7,0,4.29-1.35,4.29-3.61s-1.16-3.68-5.52-5c-7.47-2.21-9.31-5.64-9.31-10.91,0-6.07,5.45-11,15.44-11a53.81,53.81,0,0,1,6.81.55c1.22.19,1.35.31,1.35,1.53v7.3c0,.49-.13.61-1.29.61s-1.35-.12-1.53-.61c-.86-2.21-1.29-3.31-1.9-4.84a3.54,3.54,0,0,0-3.68-2.33c-2.08,0-3.68.86-3.68,3.12,0,2,1,3.07,5.09,4.54,6.92,2.45,9.13,6.07,9.13,10.72,0,7.18-5.64,12.08-15.44,12.08a29.21,29.21,0,0,1-9.38-1.41c-1.23-.37-1.35-.49-1.35-1.72,0-2.26.31-5.76.61-8.58C304.9,248,305.09,247.89,306.19,247.89Z"/><path class="cls-2" d="M349.4,260.21c-9.13,0-16.18-6.25-16.18-15.94,0-9.87,7.41-16.42,18.32-16.42,9.14,0,14.1,4.41,14.1,10.29a6.64,6.64,0,0,1-.12,1.6.65.65,0,0,1-.68.43c-4.84.24-11.82.36-17.65.18a19.48,19.48,0,0,0,4.29,7.72c2.33,2.33,4,3,6.19,3a8.55,8.55,0,0,0,5.95-2.52c.55-.49,2.08.68,1.84,1.29C362.94,256,356,260.21,349.4,260.21ZM346.82,239l2-.24c2.81-.31,4.1-2.33,4.1-5.46,0-2.33-1-3.55-2.7-3.55-1.89,0-3.79,1.71-3.79,5.39A21.69,21.69,0,0,0,346.82,239Z"/></g></g></svg>